<svg width="264" height="264" viewBox="0 0 264 264" fill="none" xmlns="http://www.w3.org/2000/svg">
<path d="M132 5C148.678 5 165.192 8.28495 180.601 14.6673C196.009 21.0497 210.01 30.4044 221.803 42.1974C233.596 53.9905 242.95 67.9909 249.333 83.3992C255.715 98.8076 259 115.322 259 132C259 148.678 255.715 165.192 249.333 180.601C242.95 196.009 233.596 210.01 221.803 221.803C210.009 233.596 196.009 242.95 180.601 249.333C165.192 255.715 148.678 259 132 259C115.322 259 98.8075 255.715 83.3992 249.333C67.9908 242.95 53.9904 233.596 42.1974 221.803C30.4044 210.009 21.0496 196.009 14.6673 180.601C8.28494 165.192 4.99999 148.678 5 132C5.00001 115.322 8.28497 98.8075 14.6673 83.3991C21.0497 67.9908 30.4044 53.9904 42.1975 42.1974C53.9905 30.4044 67.9909 21.0496 83.3993 14.6673C98.8076 8.28493 115.322 4.99999 132 5L132 5Z" stroke="#3DD598" stroke-opacity="0.1" stroke-width="10" stroke-linecap="round"/>
</svg>
